{"title":"Britney Spears - Ooh La La [Music Video] 720p [Sbyky]","uid":9313000,"size":69927524,"categoryP":"video","categoryS":"music_videos","magnet":"?xt=urn:btih:0f2b2a6792d9522c4208a46521161ba1ab2e1044&amp;dn=Britney+Spears+-+Ooh+La+La+%5BMusic+Video%5D+720p+%5BSbyky%5D&amp;tr=udp%3A%2F%2Ftracker.openbittorrent.com%3A80&amp;tr=udp%3A%2F%2Fopen.demonii.com%3A1337&amp;tr=udp%3A%2F%2Ftracker.coppersurfer.tk%3A6969&amp;tr=udp%3A%2F%2Fexodus.desync.com%3A6969","seeders":1,"leechers":0,"uploader":"Sbyky","files":1,"time":1386429638,"description":"\n\nGeneral\nComplete name                            : Britney Spears - Ooh La La [Music Video] 720p [Sbyky].MP4\nFormat                                   : MPEG-4\nFormat profile                           : Base Media\nCodec ID                                 : isom\nFile size                                : 66.7 MiB\nDuration                                 : 4mn 20s\nOverall bit rate mode                    : Variable\nOverall bit rate                         : 2 145 Kbps\nEncoded date                             : UTC 2013-11-12 06:49:40\nTagged date                              : UTC 2013-11-12 06:49:40\n\nVideo\nID                                       : 1\nFormat                                   : AVC\nFormat/Info                              : Advanced Video Codec\nFormat profile                           : &lt;a class=&quot;__cf_email__&quot; href=&quot;/cdn-cgi/l/email-protection&quot; data-cfemail=&quot;e9a4888087a9a5dac7d8&quot;&gt;[email&amp;#160;protected]&lt;/a&gt;&lt;script data-cfhash='f9e31' type=&quot;text/javascript&quot;&gt;\n/* &lt;![CDATA[ */!function(){try{var t=&quot;currentScript&quot;in document?document.currentScript:function(){for(var t=document.getElementsByTagName(&quot;script&quot;),e=t.length;e--;)if(t[e].getAttribute(&quot;data-cfhash&quot;))return t[e]}();if(t&amp;&amp;t.previousSibling){var e,r,n,i,c=t.previousSibling,a=c.getAttribute(&quot;data-cfemail&quot;);if(a){for(e=&quot;&quot;,r=parseInt(a.substr(0,2),16),n=2;a.length-n;n+=2)i=parseInt(a.substr(n,2),16)^r,e+=String.fromCharCode(i);e=document.createTextNode(e),c.parentNode.replaceChild(e,c)}t.parentNode.removeChild(t);}}catch(u){}}()/* ]]&gt; */&lt;/script&gt;\nFormat settings, CABAC                   : Yes\nFormat settings, ReFrames                : 3 frames\nCodec ID                                 : avc1\nCodec ID/Info                            : Advanced Video Coding\nDuration                                 : 4mn 20s\nDuration_LastFrame                       : -41ms\nBit rate                                 : 1 888 Kbps\nWidth                                    : 1 280 pixels\nHeight                                   : 720 pixels\nDisplay aspect ratio                     : 16:9\nFrame rate mode                          : Constant\nFrame rate                               : 23.976 fps\nColor space                              : YUV\nChroma subsampling                       : 4:2:0\nBit depth                                : 8 bits\nScan type                                : Progressive\nBits/(Pixel*Frame)                       : 0.085\nStream size                              : 58.7 MiB (88%)\nEncoded date                             : UTC 2013-11-12 06:49:40\nTagged date                              : UTC 2013-11-12 06:49:40\n\nAudio\nID                                       : 2\nFormat                                   : AAC\nFormat/Info                              : Advanced Audio Codec\nFormat profile                           : LC\nCodec ID                                 : 40\nDuration                                 : 4mn 20s\nBit rate mode                            : Variable\nBit rate                                 : 254 Kbps\nChannel(s)                               : 2 channels\nChannel positions                        : Front: L R\nSampling rate                            : 44.1 KHz\nCompression mode                         : Lossy\nDelay relative to video                  : 42ms\nStream size                              : 7.89 MiB (12%)\nEncoded date                             : UTC 2013-11-12 06:49:21\nTagged date                              : UTC 2013-11-12 06:49:21\n\nShared By Sbyky\n","torrent":{"xt":"urn:btih:0f2b2a6792d9522c4208a46521161ba1ab2e1044","amp;dn":"Britney+Spears+-+Ooh+La+La+%5BMusic+Video%5D+720p+%5BSbyky%5D","amp;tr":["udp%3A%2F%2Ftracker.openbittorrent.com%3A80","udp%3A%2F%2Fopen.demonii.com%3A1337","udp%3A%2F%2Ftracker.coppersurfer.tk%3A6969","udp%3A%2F%2Fexodus.desync.com%3A6969"],"infoHash":"0f2b2a6792d9522c4208a46521161ba1ab2e1044","infoHashBuffer":{"type":"Buffer","data":[15,43,42,103,146,217,82,44,66,8,164,101,33,22,27,161,171,46,16,68]},"announce":[],"urlList":[]}}